<svg width="58" height="58" viewBox="0 0 58 58" fill="none" xmlns="http://www.w3.org/2000/svg">
<g filter="url(#filter0_d_326_3039)">
<circle cx="29" cy="25" r="15" fill="#272727"/>
<circle cx="29" cy="25" r="14.5" stroke="black"/>
</g>
<path d="M27.8241 18.4583C27.2913 18.4583 26.7969 18.7161 26.5286 19.1339L25.7961 20.274H24.4999C23.3093 20.274 22.3333 21.1602 22.3333 22.2411V27.9911C22.3333 29.0721 23.3093 29.9583 24.4999 29.9583H33.4999C34.6906 29.9583 35.6666 29.0721 35.6666 27.9911V22.2411C35.6666 21.1602 34.6906 20.274 33.4999 20.274H32.2037L31.4713 19.1339C31.203 18.7161 30.7085 18.4583 30.1757 18.4583H27.8241ZM27.8241 19.3661H30.1757C30.3542 19.3661 30.5176 19.4517 30.6073 19.5913L31.4849 20.9567C31.529 21.0252 31.592 21.0821 31.6677 21.1216C31.7434 21.1611 31.8292 21.1819 31.9166 21.1819H33.4999C34.1499 21.1819 34.6666 21.651 34.6666 22.2411V27.9911C34.6666 28.5813 34.1499 29.0504 33.4999 29.0504H24.4999C23.8499 29.0504 23.3333 28.5813 23.3333 27.9911V22.2411C23.3333 21.651 23.8499 21.1819 24.4999 21.1819H26.0833C26.1706 21.1819 26.2564 21.1611 26.3321 21.1216C26.4079 21.0821 26.4709 21.0252 26.5149 20.9567L27.3925 19.5913C27.4822 19.4517 27.6456 19.3661 27.8241 19.3661ZM28.9999 22.0898C27.349 22.0898 25.9999 23.3146 25.9999 24.8135C25.9999 26.3124 27.349 27.5372 28.9999 27.5372C30.6509 27.5372 31.9999 26.3124 31.9999 24.8135C31.9999 23.3146 30.6509 22.0898 28.9999 22.0898ZM28.9999 22.9977C30.1104 22.9977 30.9999 23.8053 30.9999 24.8135C30.9999 25.8217 30.1104 26.6293 28.9999 26.6293C27.8894 26.6293 26.9999 25.8217 26.9999 24.8135C26.9999 23.8053 27.8894 22.9977 28.9999 22.9977Z" fill="#CAFF00"/>
<defs>
<filter id="filter0_d_326_3039" x="0" y="0" width="58" height="58" filterUnits="userSpaceOnUse" color-interpolation-filters="sRGB">
<feFlood flood-opacity="0" result="BackgroundImageFix"/>
<feColorMatrix in="SourceAlpha" type="matrix" values="0 0 0 0 0 0 0 0 0 0 0 0 0 0 0 0 0 0 127 0" result="hardAlpha"/>
<feOffset dy="4"/>
<feGaussianBlur stdDeviation="7"/>
<feComposite in2="hardAlpha" operator="out"/>
<feColorMatrix type="matrix" values="0 0 0 0 0 0 0 0 0 0 0 0 0 0 0 0 0 0 0.07 0"/>
<feBlend mode="normal" in2="BackgroundImageFix" result="effect1_dropShadow_326_3039"/>
<feBlend mode="normal" in="SourceGraphic" in2="effect1_dropShadow_326_3039" result="shape"/>
</filter>
</defs>
</svg>
