<svg width="48" height="48" viewBox="0 0 48 48" fill="none" xmlns="http://www.w3.org/2000/svg">
<circle cx="24" cy="24" r="23.5" stroke="#E9E9E9"/>
<path d="M27.7125 14.1C26.6748 14.1603 25.4835 14.7384 24.7752 15.4746C24.1353 16.1442 23.6304 17.1387 23.8365 18.1008C24.9642 18.1305 26.0962 17.5374 26.7739 16.7877C27.4066 16.0866 27.8862 15.108 27.7125 14.1ZM27.774 18.099C26.1459 18.099 25.4652 19.0992 24.3375 19.0992C23.1774 19.0992 22.1169 18.1623 20.7129 18.1623C18.8031 18.1632 15.9 19.9323 15.9 24.1002C15.9 27.8919 19.3359 32.1 21.2754 32.1C22.4535 32.1117 22.7391 31.3592 24.3375 31.3511C25.9377 31.3394 26.283 32.1099 27.4629 32.1C28.7913 32.0901 29.8287 30.6303 30.5865 29.4738C31.1301 28.6458 31.3536 28.2231 31.7748 27.2871C28.6491 26.4951 28.0272 21.4545 31.7748 20.4123C31.0674 19.2054 29.0025 18.099 27.774 18.099Z" fill="white"/>
</svg>
