<svg width="20" height="20" viewBox="0 0 20 20" fill="none" xmlns="http://www.w3.org/2000/svg">
<path fill-rule="evenodd" clip-rule="evenodd" d="M8.14823 17.5H11.8519C14.4528 17.5 15.7532 17.5 16.6874 16.8872C17.0918 16.6219 17.439 16.2809 17.7092 15.8839C18.3334 14.9667 18.3334 13.6899 18.3334 11.1364C18.3334 8.5828 18.3334 7.30601 17.7092 6.38884C17.439 5.99178 17.0918 5.65087 16.6874 5.38557C16.0871 4.99178 15.3356 4.85102 14.1851 4.80071C13.636 4.80071 13.1633 4.39223 13.0556 3.86364C12.8941 3.07074 12.185 2.5 11.3615 2.5H8.6387C7.81513 2.5 7.10604 3.07074 6.94453 3.86364C6.83685 4.39223 6.36413 4.80071 5.81508 4.80071C4.66453 4.85102 3.91304 4.99178 3.31278 5.38557C2.90838 5.65087 2.56115 5.99178 2.29093 6.38884C1.66675 7.30601 1.66675 8.5828 1.66675 11.1364C1.66675 13.6899 1.66675 14.9667 2.29093 15.8839C2.56115 16.2809 2.90838 16.6219 3.31278 16.8872C4.24695 17.5 5.54737 17.5 8.14823 17.5ZM10.0001 7.72727C8.08243 7.72727 6.52786 9.25357 6.52786 11.1364C6.52786 13.0192 8.08243 14.5455 10.0001 14.5455C11.9177 14.5455 13.4723 13.0192 13.4723 11.1364C13.4723 9.25357 11.9177 7.72727 10.0001 7.72727ZM10.0001 9.09091C8.84949 9.09091 7.91675 10.0067 7.91675 11.1364C7.91675 12.266 8.84949 13.1818 10.0001 13.1818C11.1507 13.1818 12.0834 12.266 12.0834 11.1364C12.0834 10.0067 11.1507 9.09091 10.0001 9.09091ZM13.9353 8.40909C13.9353 8.03253 14.2462 7.72727 14.6297 7.72727H15.5556C15.9392 7.72727 16.2501 8.03253 16.2501 8.40909C16.2501 8.78565 15.9392 9.09091 15.5556 9.09091H14.6297C14.2462 9.09091 13.9353 8.78565 13.9353 8.40909Z" fill="#9B9B9B"/>
</svg>
