<svg width="42" height="42" viewBox="0 0 42 42" fill="none" xmlns="http://www.w3.org/2000/svg">
<circle cx="21" cy="21" r="20.5" fill="#CAFF00" stroke="black"/>
<path d="M21.0022 21.2934C20.8401 21.2934 20.7087 21.162 20.7087 20.9999C20.7087 20.8378 20.8401 20.7064 21.0022 20.7064" stroke="black" stroke-width="1.4" stroke-linecap="round" stroke-linejoin="round"/>
<path d="M21.0017 21.2932C21.1638 21.2932 21.2951 21.1618 21.2951 20.9997C21.2951 20.8376 21.1638 20.7062 21.0017 20.7062" stroke="black" stroke-width="1.4" stroke-linecap="round" stroke-linejoin="round"/>
<path d="M17.7746 21.2934C17.6126 21.2934 17.4812 21.162 17.4812 20.9999C17.4812 20.8378 17.6126 20.7064 17.7746 20.7064" stroke="black" stroke-width="1.4" stroke-linecap="round" stroke-linejoin="round"/>
<path d="M17.7742 21.2932C17.9362 21.2932 18.0676 21.1618 18.0676 20.9997C18.0676 20.8376 17.9362 20.7062 17.7742 20.7062" stroke="black" stroke-width="1.4" stroke-linecap="round" stroke-linejoin="round"/>
<path d="M24.2297 21.2934C24.0676 21.2934 23.9363 21.162 23.9363 20.9999C23.9363 20.8378 24.0676 20.7064 24.2297 20.7064" stroke="black" stroke-width="1.4" stroke-linecap="round" stroke-linejoin="round"/>
<path d="M24.2292 21.2932C24.3913 21.2932 24.5227 21.1618 24.5227 20.9997C24.5227 20.8376 24.3913 20.7062 24.2292 20.7062" stroke="black" stroke-width="1.4" stroke-linecap="round" stroke-linejoin="round"/>
<path d="M20.9977 13.44C19.6306 13.4404 18.2892 13.8118 17.1164 14.5145C15.9436 15.2172 14.9834 16.2249 14.3378 17.4304C13.6923 18.6358 13.3858 19.9938 13.4509 21.3598C13.5159 22.7257 13.9502 24.0484 14.7073 25.187L13.4399 28.56L17.6839 27.7923C18.7059 28.2919 19.8273 28.5543 20.9647 28.5599C22.1022 28.5655 23.2262 28.3143 24.253 27.8249C25.2798 27.3355 26.1831 26.6206 26.8951 25.7334C27.6073 24.8463 28.1102 23.8098 28.3661 22.7012C28.622 21.5926 28.6246 20.4406 28.3734 19.3309C28.1223 18.2212 27.6241 17.1825 26.9158 16.2923C26.2075 15.402 25.3074 14.6832 24.2827 14.1893C23.2581 13.6955 22.1351 13.4393 20.9977 13.44Z" stroke="black" stroke-width="1.4" stroke-linecap="round" stroke-linejoin="round"/>
</svg>
