<svg width="20" height="20" viewBox="0 0 20 20" fill="none" xmlns="http://www.w3.org/2000/svg">
<path fill-rule="evenodd" clip-rule="evenodd" d="M10.0001 18.3333C14.6025 18.3333 18.3334 14.6023 18.3334 9.99996C18.3334 5.39759 14.6025 1.66663 10.0001 1.66663C5.39771 1.66663 1.66675 5.39759 1.66675 9.99996C1.66675 14.6023 5.39771 18.3333 10.0001 18.3333ZM6.99798 12.9611C7.20352 12.6838 7.59495 12.6256 7.87226 12.8312C8.47921 13.2811 9.21183 13.5416 10.0001 13.5416C10.7883 13.5416 11.521 13.2811 12.1279 12.8312C12.4052 12.6256 12.7966 12.6838 13.0022 12.9611C13.2077 13.2384 13.1496 13.6299 12.8723 13.8354C12.0619 14.4361 11.0709 14.7916 10.0001 14.7916C8.92927 14.7916 7.93825 14.4361 7.1279 13.8354C6.8506 13.6299 6.79243 13.2384 6.99798 12.9611ZM13.3334 8.74996C13.3334 9.44032 12.9603 9.99996 12.5001 9.99996C12.0398 9.99996 11.6667 9.44032 11.6667 8.74996C11.6667 8.0596 12.0398 7.49996 12.5001 7.49996C12.9603 7.49996 13.3334 8.0596 13.3334 8.74996ZM7.50008 9.99996C7.96032 9.99996 8.33342 9.44032 8.33342 8.74996C8.33342 8.0596 7.96032 7.49996 7.50008 7.49996C7.03984 7.49996 6.66675 8.0596 6.66675 8.74996C6.66675 9.44032 7.03984 9.99996 7.50008 9.99996Z" fill="#9B9B9B"/>
</svg>
