<svg width="118" height="104" viewBox="0 0 118 104" fill="none" xmlns="http://www.w3.org/2000/svg">
<path d="M59.01 81.6402C59.5512 81.6402 59.99 81.2014 59.99 80.6602C59.99 80.1189 59.5512 79.6802 59.01 79.6802C58.4688 79.6802 58.03 80.1189 58.03 80.6602C58.03 81.2014 58.4688 81.6402 59.01 81.6402Z" fill="#4A5059"/>
<path d="M30.54 7.85986V12.1599" stroke="#4A5059" stroke-linecap="round" stroke-linejoin="round"/>
<path d="M28.39 10.0098H32.7" stroke="#4A5059" stroke-linecap="round" stroke-linejoin="round"/>
<path d="M79.5 34.9999C71.12 34.9999 62.61 34.6599 54.64 32.4399C46.67 30.2199 39.64 26.0599 33.24 21.1899C29.04 18.0199 25.24 15.4899 19.79 15.8699C14.4708 16.1565 9.38427 18.1441 5.28 21.5399C-1.65 27.5999 -0.600001 38.8099 2.16 46.6899C6.33 58.5399 19 66.7899 29.75 72.1599C42.18 78.3699 55.83 81.9799 69.53 84.0499C81.53 85.8799 96.94 87.1999 107.34 79.3599C116.9 72.1599 119.52 55.7199 117.18 44.6199C116.609 41.3396 114.859 38.3809 112.26 36.2999C105.55 31.3899 95.54 34.6699 88 34.8299C85.2 34.8899 82.36 34.9999 79.5 34.9999Z" fill="#272933"/>
<path d="M65.95 2.00004C66.4912 2.00004 66.93 1.56128 66.93 1.02004C66.93 0.4788 66.4912 0.0400391 65.95 0.0400391C65.4088 0.0400391 64.97 0.4788 64.97 1.02004C64.97 1.56128 65.4088 2.00004 65.95 2.00004Z" fill="#4A5059"/>
<path d="M15.04 78.3101V82.6101" stroke="#4A5059" stroke-linecap="round" stroke-linejoin="round"/>
<path d="M12.88 80.46H17.19" stroke="#4A5059" stroke-linecap="round" stroke-linejoin="round"/>
<path d="M59.42 103.51C79.6944 103.51 96.13 102.485 96.13 101.22C96.13 99.9554 79.6944 98.9302 59.42 98.9302C39.1456 98.9302 22.71 99.9554 22.71 101.22C22.71 102.485 39.1456 103.51 59.42 103.51Z" fill="#272933"/>
<path d="M88.92 76.6902H25.52C25.0956 76.6899 24.6764 76.5974 24.2913 76.4191C23.9062 76.2409 23.5644 75.9811 23.2896 75.6578C23.0147 75.3344 22.8134 74.9553 22.6995 74.5465C22.5857 74.1377 22.5619 73.709 22.63 73.2902L30.73 24.1102C30.8437 23.4257 31.1965 22.8038 31.7257 22.3552C32.2549 21.9065 32.9262 21.6603 33.62 21.6602H97C97.4244 21.6605 97.8436 21.7529 98.2287 21.9312C98.6138 22.1094 98.9556 22.3692 99.2304 22.6925C99.5053 23.0159 99.7066 23.3951 99.8205 23.8038C99.9344 24.2126 99.9581 24.6413 99.89 25.0602L91.79 74.2402C91.6788 74.9221 91.3294 75.5424 90.8039 75.991C90.2784 76.4396 89.6109 76.6873 88.92 76.6902Z" fill="#2D333E" stroke="#4A5059" stroke-miterlimit="10"/>
<path d="M89.6935 20.371L52.0547 3.56587C50.9453 3.07051 49.6443 3.56834 49.1489 4.67781L37.2198 31.3957C36.7245 32.5051 37.2223 33.8061 38.3318 34.3015L75.9705 51.1066C77.08 51.6019 78.381 51.1041 78.8763 49.9946L90.8054 23.2768C91.3008 22.1673 90.8029 20.8663 89.6935 20.371Z" fill="#2D333E" stroke="#4A5059" stroke-miterlimit="10"/>
<path d="M57.58 25.5498C58.5829 24.1898 60.0205 23.2134 61.6545 22.7825C63.2885 22.3517 65.0207 22.4922 66.5638 23.1809C68.1069 23.8696 69.3683 25.065 70.1388 26.569C70.9093 28.073 71.1426 29.7951 70.8 31.4498" stroke="#4A5059" stroke-width="0.68" stroke-linecap="round" stroke-linejoin="round"/>
<path d="M75.59 24.04C76.1588 24.04 76.62 23.5788 76.62 23.01C76.62 22.4411 76.1588 21.98 75.59 21.98C75.0211 21.98 74.56 22.4411 74.56 23.01C74.56 23.5788 75.0211 24.04 75.59 24.04Z" fill="#4A5059"/>
<path d="M60.67 17.3798C61.2389 17.3798 61.7 16.9187 61.7 16.3498C61.7 15.781 61.2389 15.3198 60.67 15.3198C60.1011 15.3198 59.64 15.781 59.64 16.3498C59.64 16.9187 60.1011 17.3798 60.67 17.3798Z" fill="#4A5059"/>
<path d="M88.64 76.6701H24.93C24.5449 76.6714 24.1633 76.5965 23.8072 76.4497C23.4511 76.3029 23.1276 76.0872 22.8552 75.8148C22.5829 75.5425 22.3671 75.219 22.2203 74.8629C22.0736 74.5068 21.9987 74.1252 22 73.7401V28.7401C21.9987 28.3558 22.0732 27.975 22.2194 27.6195C22.3655 27.2641 22.5804 26.941 22.8517 26.6688C23.123 26.3966 23.4453 26.1807 23.8002 26.0333C24.1552 25.8859 24.5357 25.8101 24.92 25.8101H48.12C48.6603 25.8102 49.19 25.9597 49.6506 26.2421C50.1112 26.5244 50.4848 26.9287 50.73 27.4101L54.04 33.8901C54.2836 34.3707 54.6554 34.7745 55.1143 35.0569C55.5731 35.3393 56.1012 35.4892 56.64 35.4901H88.64C89.4153 35.4901 90.1591 35.7974 90.7083 36.3447C91.2575 36.892 91.5673 37.6347 91.57 38.4101V73.7401C91.57 74.1248 91.4942 74.5058 91.347 74.8613C91.1997 75.2168 90.9839 75.5398 90.7118 75.8119C90.4397 76.084 90.1167 76.2998 89.7613 76.447C89.4058 76.5943 89.0248 76.6701 88.64 76.6701Z" fill="#2D333E" stroke="#4A5059" stroke-miterlimit="10"/>
<path d="M78.86 37C75.1793 37 71.5812 38.0915 68.5208 40.1364C65.4604 42.1812 63.0751 45.0877 61.6666 48.4883C60.2581 51.8888 59.8895 55.6306 60.6076 59.2406C61.3257 62.8506 63.0981 66.1666 65.7007 68.7693C68.3034 71.3719 71.6194 73.1443 75.2294 73.8624C78.8394 74.5805 82.5812 74.2119 85.9817 72.8034C89.3823 71.3949 92.2888 69.0096 94.3336 65.9492C96.3785 62.8888 97.47 59.2907 97.47 55.61C97.4713 53.1657 96.9908 50.7452 96.0561 48.4867C95.1213 46.2282 93.7505 44.1762 92.0222 42.4478C90.2938 40.7195 88.2418 39.3487 85.9833 38.4139C83.7248 37.4792 81.3043 36.9987 78.86 37Z" fill="#2D333E" stroke="#4A5059" stroke-miterlimit="10"/>
<path d="M92.08 69.1299L97.04 74.0899" stroke="#4A5059" stroke-width="0.68" stroke-linecap="round" stroke-linejoin="round"/>
<path d="M96.4746 71.6915L94.9337 73.3035C94.2429 74.026 94.2687 75.1718 94.9913 75.8625L108.364 88.6462C109.087 89.337 110.232 89.3112 110.923 88.5886L112.464 86.9766C113.155 86.254 113.129 85.1083 112.406 84.4176L99.0337 71.6339C98.3111 70.9431 97.1654 70.9689 96.4746 71.6915Z" fill="#4A5059"/>
<path d="M106.37 1.02002V5.33002" stroke="#4A5059" stroke-linecap="round" stroke-linejoin="round"/>
<path d="M104.22 3.18018H108.53" stroke="#4A5059" stroke-linecap="round" stroke-linejoin="round"/>
</svg>
