<svg width="18" height="18" viewBox="0 0 18 18" fill="none" xmlns="http://www.w3.org/2000/svg">
<g clip-path="url(#clip0_314_2224)">
<path d="M16.5 10.5L14.2957 8.91294C13.1504 8.08825 11.585 8.17349 10.5359 9.11766L7.46406 11.8823C6.41499 12.8265 4.84965 12.9117 3.70426 12.0871L1.5 10.5M4.5 16.5H13.5C15.1569 16.5 16.5 15.1569 16.5 13.5V4.5C16.5 2.84315 15.1569 1.5 13.5 1.5H4.5C2.84315 1.5 1.5 2.84315 1.5 4.5V13.5C1.5 15.1569 2.84315 16.5 4.5 16.5ZM8.25 6.375C8.25 7.41053 7.41053 8.25 6.375 8.25C5.33947 8.25 4.5 7.41053 4.5 6.375C4.5 5.33947 5.33947 4.5 6.375 4.5C7.41053 4.5 8.25 5.33947 8.25 6.375Z" stroke="#646464" stroke-width="1.5" stroke-linecap="round"/>
</g>
<defs>
<clipPath id="clip0_314_2224">
<rect width="18" height="18" fill="white"/>
</clipPath>
</defs>
</svg>
