<svg width="18" height="18" viewBox="0 0 18 18" fill="none" xmlns="http://www.w3.org/2000/svg">
<path fill-rule="evenodd" clip-rule="evenodd" d="M0.9375 4.5C0.9375 2.53249 2.53249 0.9375 4.5 0.9375H13.5C15.4675 0.9375 17.0625 2.53249 17.0625 4.5V13.5C17.0625 15.4675 15.4675 17.0625 13.5 17.0625H4.5C2.53249 17.0625 0.9375 15.4675 0.9375 13.5V4.5ZM4.5 2.0625C3.15381 2.0625 2.0625 3.15381 2.0625 4.5V10.875L3.95365 12.1358C5.14351 12.929 6.72787 12.7721 7.73907 11.7609L10.2609 9.23907C11.2721 8.22787 12.8565 8.07099 14.0464 8.86424L15.8321 10.0547C15.8685 10.079 15.9037 10.1047 15.9375 10.1318V4.5C15.9375 3.15381 14.8462 2.0625 13.5 2.0625H4.5ZM6.375 8.25C7.41053 8.25 8.25 7.41053 8.25 6.375C8.25 5.33947 7.41053 4.5 6.375 4.5C5.33947 4.5 4.5 5.33947 4.5 6.375C4.5 7.41053 5.33947 8.25 6.375 8.25Z" fill="#CAFF00"/>
</svg>
