<svg width="145" height="56" viewBox="0 0 145 56" fill="none" xmlns="http://www.w3.org/2000/svg">
<rect width="145" height="56" rx="11" fill="#CAFF00"/>
<path d="M59.9249 20.3583H54.0749C51.9999 20.3583 51.5416 21.3916 51.2749 22.6583L50.3333 27.1666H63.6666L62.7249 22.6583C62.4583 21.3916 61.9999 20.3583 59.9249 20.3583Z" stroke="#131313" stroke-width="1.5" stroke-linecap="round" stroke-linejoin="round"/>
<path d="M65.325 34.5166C65.4167 35.4916 64.6334 36.3333 63.6334 36.3333H62.0667C61.1667 36.3333 61.0417 35.95 60.8834 35.475L60.7167 34.975C60.4834 34.2916 60.3334 33.8333 59.1334 33.8333H54.8667C53.6667 33.8333 53.4917 34.35 53.2834 34.975L53.1167 35.475C52.9584 35.95 52.8334 36.3333 51.9334 36.3333H50.3667C49.3667 36.3333 48.5834 35.4916 48.675 34.5166L49.1417 29.4416C49.2584 28.1916 49.5 27.1666 51.6834 27.1666H62.3167C64.5 27.1666 64.7417 28.1916 64.8584 29.4416L65.325 34.5166Z" stroke="#131313" stroke-width="1.5" stroke-linecap="round" stroke-linejoin="round"/>
<path d="M50.3333 24.6666H49.5" stroke="#131313" stroke-width="1.5" stroke-linecap="round" stroke-linejoin="round"/>
<path d="M64.5001 24.6666H63.6667" stroke="#131313" stroke-width="1.5" stroke-linecap="round" stroke-linejoin="round"/>
<path d="M57 20.5V22.1667" stroke="#131313" stroke-width="1.5" stroke-linecap="round" stroke-linejoin="round"/>
<path d="M55.75 22.1666H58.25" stroke="#131313" stroke-width="1.5" stroke-linecap="round" stroke-linejoin="round"/>
<path d="M52 30.5H54.5" stroke="#131313" stroke-width="1.5" stroke-linecap="round" stroke-linejoin="round"/>
<path d="M59.5 30.5H62" stroke="#131313" stroke-width="1.5" stroke-linecap="round" stroke-linejoin="round"/>
<path d="M81.229 33.14C80.501 33.14 79.8243 33.014 79.199 32.762C78.583 32.5007 78.0417 32.1413 77.575 31.684C77.1083 31.2267 76.749 30.6947 76.497 30.088C76.245 29.472 76.119 28.8047 76.119 28.086C76.119 27.3767 76.2497 26.7187 76.511 26.112C76.7723 25.5053 77.1317 24.9733 77.589 24.516C78.0557 24.0587 78.6017 23.704 79.227 23.452C79.8617 23.2 80.543 23.074 81.271 23.074C81.775 23.074 82.265 23.144 82.741 23.284C83.217 23.424 83.6463 23.62 84.029 23.872C84.421 24.124 84.743 24.4087 84.995 24.726L83.847 25.916C83.455 25.5427 83.0443 25.258 82.615 25.062C82.1857 24.866 81.733 24.768 81.257 24.768C80.7903 24.768 80.3563 24.852 79.955 25.02C79.563 25.188 79.213 25.4213 78.905 25.72C78.6063 26.0187 78.373 26.3687 78.205 26.77C78.0463 27.1713 77.967 27.61 77.967 28.086C77.967 28.5527 78.051 28.9913 78.219 29.402C78.3963 29.8033 78.639 30.158 78.947 30.466C79.2643 30.774 79.6237 31.0167 80.025 31.194C80.4357 31.362 80.8697 31.446 81.327 31.446C81.6723 31.446 81.9943 31.3993 82.293 31.306C82.5917 31.2033 82.8577 31.0633 83.091 30.886C83.3243 30.6993 83.5017 30.4847 83.623 30.242C83.7537 29.9993 83.819 29.7427 83.819 29.472V29.164L84.071 29.444H81.173V27.82H85.611C85.6297 27.9227 85.6437 28.0393 85.653 28.17C85.6623 28.2913 85.667 28.408 85.667 28.52C85.6763 28.632 85.681 28.73 85.681 28.814C85.681 29.458 85.5643 30.046 85.331 30.578C85.107 31.1007 84.7943 31.5533 84.393 31.936C83.9917 32.3187 83.5203 32.6173 82.979 32.832C82.447 33.0373 81.8637 33.14 81.229 33.14ZM91.9948 33.14C91.2854 33.14 90.6321 33.014 90.0348 32.762C89.4468 32.51 88.9288 32.16 88.4808 31.712C88.0421 31.2547 87.7014 30.718 87.4588 30.102C87.2161 29.486 87.0948 28.814 87.0948 28.086C87.0948 27.358 87.2161 26.686 87.4588 26.07C87.7014 25.454 88.0421 24.922 88.4808 24.474C88.9288 24.0167 89.4468 23.662 90.0348 23.41C90.6321 23.158 91.2854 23.032 91.9948 23.032C92.6948 23.032 93.3434 23.158 93.9408 23.41C94.5381 23.662 95.0561 24.0167 95.4948 24.474C95.9334 24.9313 96.2741 25.468 96.5168 26.084C96.7594 26.7 96.8808 27.3673 96.8808 28.086C96.8808 28.814 96.7594 29.486 96.5168 30.102C96.2741 30.7087 95.9334 31.2407 95.4948 31.698C95.0561 32.1553 94.5381 32.51 93.9408 32.762C93.3434 33.014 92.6948 33.14 91.9948 33.14ZM91.9948 31.404C92.4428 31.404 92.8488 31.3247 93.2128 31.166C93.5861 30.998 93.9081 30.7647 94.1788 30.466C94.4494 30.1673 94.6594 29.8173 94.8088 29.416C94.9674 29.0053 95.0468 28.562 95.0468 28.086C95.0468 27.61 94.9674 27.1713 94.8088 26.77C94.6594 26.3593 94.4494 26.0047 94.1788 25.706C93.9081 25.4073 93.5861 25.1787 93.2128 25.02C92.8488 24.852 92.4428 24.768 91.9948 24.768C91.5468 24.768 91.1361 24.852 90.7628 25.02C90.3988 25.1787 90.0768 25.4073 89.7968 25.706C89.5261 26.0047 89.3161 26.3547 89.1668 26.756C89.0174 27.1573 88.9428 27.6007 88.9428 28.086C88.9428 28.73 89.0734 29.304 89.3348 29.808C89.5961 30.3027 89.9554 30.6947 90.4128 30.984C90.8701 31.264 91.3974 31.404 91.9948 31.404Z" fill="#131313"/>
</svg>
