<svg width="48" height="48" viewBox="0 0 48 48" fill="none" xmlns="http://www.w3.org/2000/svg">
<circle cx="24" cy="24" r="23.5" stroke="#E9E9E9"/>
<path d="M33.8055 22.0415H33V22H24V26H29.6515C28.827 28.3285 26.6115 30 24 30C20.6865 30 18 27.3135 18 24C18 20.6865 20.6865 18 24 18C25.5295 18 26.921 18.577 27.9805 19.5195L30.809 16.691C29.023 15.0265 26.634 14 24 14C18.4775 14 14 18.4775 14 24C14 29.5225 18.4775 34 24 34C29.5225 34 34 29.5225 34 24C34 23.3295 33.931 22.675 33.8055 22.0415Z" fill="#FFC20E"/>
<path d="M15.153 19.3455L18.4385 21.755C19.3275 19.554 21.4805 18 24 18C25.5295 18 26.921 18.577 27.9805 19.5195L30.809 16.691C29.023 15.0265 26.634 14 24 14C20.159 14 16.828 16.1685 15.153 19.3455Z" fill="#E53935"/>
<path d="M24 34C26.583 34 28.93 33.0115 30.7045 31.404L27.6095 28.785C26.6055 29.5455 25.3575 30 24 30C21.399 30 19.1905 28.3415 18.3585 26.027L15.0975 28.5395C16.7525 31.778 20.1135 34 24 34Z" fill="#4CAF50"/>
<path d="M33.8055 22.0415L33.7975 22H33H24V26H29.6515C29.2555 27.1185 28.536 28.083 27.608 28.7855C27.6085 28.785 27.609 28.785 27.6095 28.7845L30.7045 31.4035C30.4855 31.6025 34 29 34 24C34 23.3295 33.931 22.675 33.8055 22.0415Z" fill="#1565C0"/>
</svg>
