<svg width="22" height="22" viewBox="0 0 22 22" fill="none" xmlns="http://www.w3.org/2000/svg">
<rect width="22" height="22" rx="11" fill="white" fill-opacity="0.21"/>
<path fill-rule="evenodd" clip-rule="evenodd" d="M12.9249 6.25032C13.2404 6.25032 13.5554 6.29482 13.8549 6.39532C15.7004 6.99532 16.3654 9.02032 15.8099 10.7903C15.4949 11.6948 14.9799 12.5203 14.3054 13.1948C13.3399 14.1298 12.2804 14.9598 11.1399 15.6748L11.0149 15.7503L10.8849 15.6698C9.74039 14.9598 8.67489 14.1298 7.70039 13.1898C7.03039 12.5153 6.51489 11.6948 6.19489 10.7903C5.62989 9.02032 6.29489 6.99532 8.16039 6.38482C8.30539 6.33482 8.45489 6.29982 8.60489 6.28032H8.66489C8.80539 6.25982 8.94489 6.25032 9.08489 6.25032H9.13989C9.45489 6.25982 9.75989 6.31482 10.0554 6.41532H10.0849C10.1049 6.42482 10.1199 6.43532 10.1299 6.44482C10.2404 6.48032 10.3449 6.52032 10.4449 6.57532L10.6349 6.66032C10.6808 6.68481 10.7323 6.72222 10.7769 6.75456C10.8051 6.77505 10.8305 6.79349 10.8499 6.80532C10.858 6.81014 10.8663 6.81498 10.8747 6.81986C10.9176 6.84488 10.9622 6.87095 10.9999 6.89982C11.5554 6.47532 12.2299 6.24532 12.9249 6.25032ZM14.2549 9.85032C14.4599 9.84482 14.6349 9.68032 14.6499 9.46982V9.41032C14.6649 8.70982 14.2404 8.07532 13.5949 7.83032C13.3899 7.75982 13.1649 7.87032 13.0899 8.08032C13.0199 8.29032 13.1299 8.52032 13.3399 8.59482C13.6604 8.71482 13.8749 9.03032 13.8749 9.37982V9.39532C13.8654 9.50982 13.8999 9.62032 13.9699 9.70532C14.0399 9.79032 14.1449 9.83982 14.2549 9.85032Z" fill="white"/>
</svg>
