<svg width="22" height="22" viewBox="0 0 22 22" fill="none" xmlns="http://www.w3.org/2000/svg">
<rect y="6.10352e-05" width="22" height="22" rx="11" fill="#E44057" fill-opacity="0.21"/>
<path fill-rule="evenodd" clip-rule="evenodd" d="M12.9249 6.25039C13.2404 6.25039 13.5554 6.29489 13.8549 6.39539C15.7004 6.99539 16.3654 9.02039 15.8099 10.7904C15.4949 11.6949 14.9799 12.5204 14.3054 13.1949C13.3399 14.1299 12.2804 14.9599 11.1399 15.6749L11.0149 15.7504L10.8849 15.6699C9.74039 14.9599 8.67489 14.1299 7.70039 13.1899C7.03039 12.5154 6.51489 11.6949 6.19489 10.7904C5.62989 9.02039 6.29489 6.99538 8.16039 6.38489C8.30539 6.33489 8.45489 6.29989 8.60489 6.28039H8.66489C8.80539 6.25989 8.94489 6.25039 9.08489 6.25039H9.13989C9.45489 6.25989 9.75989 6.31489 10.0554 6.41539H10.0849C10.1049 6.42489 10.1199 6.43539 10.1299 6.44489C10.2404 6.48039 10.3449 6.52038 10.4449 6.57539L10.6349 6.66039C10.6808 6.68487 10.7323 6.72228 10.7769 6.75462C10.8051 6.77511 10.8305 6.79356 10.8499 6.80538C10.858 6.8102 10.8663 6.81504 10.8747 6.81992C10.9176 6.84495 10.9622 6.87101 10.9999 6.89988C11.5554 6.47539 12.2299 6.24539 12.9249 6.25039ZM14.2549 9.85038C14.4599 9.84488 14.6349 9.68038 14.6499 9.46988V9.41038C14.6649 8.70988 14.2404 8.07538 13.5949 7.83038C13.3899 7.75988 13.1649 7.87038 13.0899 8.08038C13.0199 8.29039 13.1299 8.52039 13.3399 8.59488C13.6604 8.71488 13.8749 9.03039 13.8749 9.37988V9.39538C13.8654 9.50988 13.8999 9.62038 13.9699 9.70538C14.0399 9.79039 14.1449 9.83988 14.2549 9.85038Z" fill="#E44057"/>
</svg>
