<svg width="16" height="16" viewBox="0 0 16 16" fill="" xmlns="http://www.w3.org/2000/svg">
<path fill-rule="evenodd" clip-rule="evenodd" d="M11.0478 0.47971C11.5474 0.47971 12.0461 0.550168 12.5203 0.709293C15.4424 1.65929 16.4953 4.86554 15.6158 7.66804C15.117 9.10017 14.3016 10.4072 13.2336 11.4752C11.7049 12.9556 10.0274 14.2698 8.2216 15.4018L8.02368 15.5214L7.81785 15.3939C6.00572 14.2698 4.31868 12.9556 2.77572 11.4673C1.71489 10.3993 0.898682 9.10017 0.392015 7.66804C-0.502568 4.86554 0.550349 1.65929 3.50406 0.692668C3.73364 0.613502 3.97035 0.558085 4.20785 0.52721H4.30285C4.52531 0.494752 4.74618 0.47971 4.96785 0.47971H5.05493C5.55368 0.494752 6.0366 0.581835 6.50447 0.74096H6.55118C6.58285 0.756002 6.6066 0.772627 6.62243 0.787668C6.79739 0.843877 6.96285 0.90721 7.12118 0.994293L7.42201 1.12888C7.49471 1.16765 7.5763 1.22689 7.64682 1.27808C7.6915 1.31052 7.73173 1.33973 7.76243 1.35846C7.77535 1.36608 7.78848 1.37375 7.80172 1.38147C7.8696 1.4211 7.94031 1.46237 7.99993 1.50809C8.87947 0.83596 9.94743 0.471793 11.0478 0.47971ZM13.1537 6.17971C13.4783 6.171 13.7553 5.91054 13.7791 5.57725V5.48304C13.8028 4.37392 13.1307 3.36929 12.1087 2.98138C11.7841 2.86975 11.4278 3.04471 11.3091 3.37721C11.1983 3.70971 11.3724 4.07388 11.7049 4.19184C12.2124 4.38184 12.552 4.88138 12.552 5.43475V5.45929C12.537 5.64059 12.5916 5.81554 12.7024 5.95013C12.8133 6.08471 12.9795 6.16309 13.1537 6.17971Z" fill=""/>
</svg>
