<svg width="24" height="24" viewBox="0 0 24 24" fill="none" xmlns="http://www.w3.org/2000/svg">
<path d="M19.75 1C18.0848 1 16.5 2.36673 16.5 4.25C16.4986 4.34938 16.517 4.44806 16.554 4.54028C16.5911 4.63251 16.6461 4.71645 16.7159 4.78723C16.7857 4.858 16.8688 4.91421 16.9605 4.95257C17.0522 4.99093 17.1506 5.01068 17.25 5.01068C17.3494 5.01068 17.4478 4.99093 17.5395 4.95257C17.6312 4.91421 17.7143 4.858 17.7841 4.78723C17.8539 4.71645 17.9089 4.63251 17.946 4.54028C17.983 4.44806 18.0014 4.34938 18 4.25C18 3.23427 18.9302 2.5 19.75 2.5C20.5698 2.5 21.5 3.23427 21.5 4.25C21.5 4.68586 21.3852 4.95276 21.1758 5.23926C20.9664 5.52575 20.64 5.81054 20.2627 6.13281C19.5081 6.77735 18.5 7.7 18.5 9.25C18.4986 9.34938 18.517 9.44806 18.554 9.54028C18.5911 9.63251 18.6461 9.71645 18.7159 9.78723C18.7857 9.858 18.8688 9.91421 18.9605 9.95257C19.0522 9.99093 19.1506 10.0107 19.25 10.0107C19.3494 10.0107 19.4478 9.99093 19.5395 9.95257C19.6312 9.91421 19.7143 9.858 19.7841 9.78723C19.8539 9.71645 19.9089 9.63251 19.946 9.54028C19.983 9.44806 20.0014 9.34938 20 9.25C20 8.3 20.4919 7.91015 21.2373 7.27344C21.61 6.95508 22.0336 6.60706 22.3867 6.12402C22.7398 5.64099 23 5.00164 23 4.25C23 2.36673 21.4152 1 19.75 1ZM10 2C7.24746 2 5 4.24746 5 7C5 9.75254 7.24746 12 10 12C12.7525 12 15 9.75254 15 7C15 4.24746 12.7525 2 10 2ZM10 3.5C11.9419 3.5 13.5 5.05812 13.5 7C13.5 8.94188 11.9419 10.5 10 10.5C8.05812 10.5 6.5 8.94188 6.5 7C6.5 5.05812 8.05812 3.5 10 3.5ZM19.25 11C18.9185 11 18.6005 11.1317 18.3661 11.3661C18.1317 11.6005 18 11.9185 18 12.25C18 12.5815 18.1317 12.8995 18.3661 13.1339C18.6005 13.3683 18.9185 13.5 19.25 13.5C19.5815 13.5 19.8995 13.3683 20.1339 13.1339C20.3683 12.8995 20.5 12.5815 20.5 12.25C20.5 11.9185 20.3683 11.6005 20.1339 11.3661C19.8995 11.1317 19.5815 11 19.25 11ZM3.98926 14C2.89935 14 2 14.8994 2 15.9893V16.75C2 18.5521 3.13964 19.9461 4.65332 20.7812C6.16701 21.6164 8.08405 22 10 22C11.9159 22 13.833 21.6164 15.3467 20.7812C16.6373 20.0692 17.6087 18.9313 17.8809 17.5H18.001V15.9893C18.001 14.8994 17.1006 14 16.0107 14H3.98926ZM3.98926 15.5H16.0107C16.2898 15.5 16.501 15.7102 16.501 15.9893V16H16.5V16.75C16.5 17.9479 15.8271 18.8039 14.6221 19.4688C13.417 20.1336 11.7091 20.5 10 20.5C8.29095 20.5 6.58299 20.1336 5.37793 19.4688C4.17287 18.8039 3.5 17.9479 3.5 16.75V15.9893C3.5 15.7102 3.71016 15.5 3.98926 15.5Z" fill="#7A7A7A"/>
</svg>
