<svg width="20" height="20" viewBox="0 0 20 20" fill="none" xmlns="http://www.w3.org/2000/svg">
<path d="M1.66675 9.99996C1.66675 5.39759 5.39771 1.66663 10.0001 1.66663C14.1776 1.66663 17.6372 4.74057 18.2403 8.74995L18.0718 8.7499C15.9972 8.74924 14.6332 8.7488 13.4939 9.14745C11.4593 9.85941 9.85954 11.4592 9.14757 13.4938C8.74892 14.6331 8.74936 15.997 8.75003 18.0716L8.75007 18.2402C4.74069 17.6371 1.66675 14.1775 1.66675 9.99996Z" fill="#9B9B9B"/>
<path d="M17.7021 11.4235L11.4236 17.7019C11.3683 17.7572 11.3105 17.8098 11.2504 17.8592C11.2068 17.895 11.162 17.9292 11.1161 17.9616C10.7885 18.1928 10.4049 18.3333 10.0001 18.3333C10.0001 17.8736 10.0001 17.4594 10.0026 17.0833C10.0128 15.5551 10.0647 14.6574 10.3274 13.9067C10.9137 12.2311 12.2312 10.9136 13.9068 10.3273C14.6575 10.0646 15.5552 10.0127 17.0834 10.0025C17.4595 9.99996 17.8738 9.99996 18.3334 9.99996C18.3334 10.4048 18.193 10.7884 17.9617 11.116C17.9293 11.1619 17.8951 11.2067 17.8593 11.2503C17.8099 11.3104 17.7574 11.3682 17.7021 11.4235Z" fill="#9B9B9B"/>
</svg>
