<svg width="18" height="18" viewBox="0 0 18 18" fill="none" xmlns="http://www.w3.org/2000/svg">
<path d="M10.5 6.75C10.5 7.57843 9.82843 8.25 9 8.25C8.17157 8.25 7.5 7.57843 7.5 6.75C7.5 5.92157 8.17157 5.25 9 5.25C9.82843 5.25 10.5 5.92157 10.5 6.75Z" stroke="#646464" stroke-width="1.5"/>
<path d="M14.25 6.64286C14.25 8.35613 12.9765 10.4975 11.5818 11.9271C10.6643 12.8675 9.6944 13.5 9 13.5C8.3056 13.5 7.33565 12.8675 6.41817 11.9271C5.02347 10.4975 3.75 8.35613 3.75 6.64286C3.75 3.80254 6.10051 1.5 9 1.5C11.8995 1.5 14.25 3.80254 14.25 6.64286Z" stroke="#646464" stroke-width="1.5"/>
<path d="M11.3656 12.142C13.9267 12.4615 15.75 13.2848 15.75 14.25C15.75 15.4926 12.7279 16.5 9 16.5C5.27208 16.5 2.25 15.4926 2.25 14.25C2.25 13.2848 4.07326 12.4615 6.63436 12.142" stroke="#646464" stroke-width="1.5" stroke-linecap="round"/>
</svg>
