<svg width="18" height="18" viewBox="0 0 18 18" fill="none" xmlns="http://www.w3.org/2000/svg">
<path fill-rule="evenodd" clip-rule="evenodd" d="M9 12.75C10.5 12.75 13.5 9.23528 13.5 6.75C13.5 4.26472 11.4853 2.25 9 2.25C6.51472 2.25 4.5 4.26472 4.5 6.75C4.5 9.23528 7.5 12.75 9 12.75ZM9 8.25C9.82843 8.25 10.5 7.57843 10.5 6.75C10.5 5.92157 9.82843 5.25 9 5.25C8.17157 5.25 7.5 5.92157 7.5 6.75C7.5 7.57843 8.17157 8.25 9 8.25Z" fill="#CAFF00"/>
<path fill-rule="evenodd" clip-rule="evenodd" d="M5.30423 11.3786C4.54965 11.5798 3.86665 12.0102 3.35652 12.6223C2.32149 13.8644 3.2047 15.75 4.82146 15.75H13.1787C14.7955 15.75 15.6787 13.8644 14.6437 12.6223C14.1335 12.0102 13.4505 11.5798 12.6959 11.3786C12.1802 12.033 11.5964 12.6239 11.0101 13.0627C10.468 13.4684 9.75173 13.875 9.00009 13.875C8.24845 13.875 7.53217 13.4684 6.99009 13.0627C6.40377 12.6239 5.82002 12.033 5.30423 11.3786Z" fill="#CAFF00"/>
</svg>
