<svg width="108" height="102" viewBox="0 0 108 102" fill="none" xmlns="http://www.w3.org/2000/svg">
<circle cx="53.3721" cy="58.3947" r="42.0698" fill="url(#paint0_linear_322_3841)"/>
<circle cx="103.919" cy="20.4063" r="4.08139" fill="url(#paint1_linear_322_3841)"/>
<ellipse cx="6.59302" cy="6.27907" rx="6.59302" ry="6.27907" fill="url(#paint2_linear_322_3841)"/>
<ellipse cx="3.13953" cy="85.7094" rx="3.13953" ry="3.45349" fill="url(#paint3_linear_322_3841)"/>
<ellipse cx="96.3839" cy="100.465" rx="1.56977" ry="1.25581" fill="url(#paint4_linear_322_3841)"/>
<path d="M50.2466 69.7722C49.3544 69.7722 48.4623 69.3898 47.9525 68.6251L40.8151 59.4484C39.7954 58.1739 40.0504 56.3895 41.3249 55.3699C42.5994 54.3502 44.3838 54.6052 45.4034 55.8797L50.2466 62.125L60.9528 48.2325C61.9724 46.958 63.7568 46.703 65.0313 47.7227C66.3058 48.7423 66.5608 50.5267 65.5411 51.8012L52.5408 68.6251C51.9035 69.2623 51.1388 69.7722 50.2466 69.7722Z" fill="white"/>
<circle cx="71.2675" cy="64.9875" r="1.56977" fill="white"/>
<circle cx="30.1396" cy="47.7209" r="2.51163" fill="white"/>
<circle cx="66.8722" cy="34.2214" r="0.94186" fill="white"/>
<circle cx="40.8139" cy="78.4882" r="1.25581" fill="white"/>
<circle cx="54.6278" cy="48.3501" r="0.627907" fill="white"/>
<defs>
<linearGradient id="paint0_linear_322_3841" x1="11.3024" y1="11.1585" x2="108.434" y2="26.2075" gradientUnits="userSpaceOnUse">
<stop stop-color="#53E88B"/>
<stop offset="1" stop-color="#15BE77"/>
</linearGradient>
<linearGradient id="paint1_linear_322_3841" x1="99.8373" y1="15.8237" x2="109.26" y2="17.2837" gradientUnits="userSpaceOnUse">
<stop stop-color="#53E88B"/>
<stop offset="1" stop-color="#15BE77"/>
</linearGradient>
<linearGradient id="paint2_linear_322_3841" x1="-1.86985e-08" y1="-0.771113" x2="15.1856" y2="1.6993" gradientUnits="userSpaceOnUse">
<stop stop-color="#53E88B"/>
<stop offset="1" stop-color="#15BE77"/>
</linearGradient>
<linearGradient id="paint3_linear_322_3841" x1="-8.90405e-09" y1="81.8317" x2="7.2782" y2="82.8569" gradientUnits="userSpaceOnUse">
<stop stop-color="#53E88B"/>
<stop offset="1" stop-color="#15BE77"/>
</linearGradient>
<linearGradient id="paint4_linear_322_3841" x1="94.8141" y1="99.0552" x2="98.3912" y2="99.748" gradientUnits="userSpaceOnUse">
<stop stop-color="#53E88B"/>
<stop offset="1" stop-color="#15BE77"/>
</linearGradient>
</defs>
</svg>
