<svg width="12" height="12" viewBox="0 0 12 12" fill="none" xmlns="http://www.w3.org/2000/svg">
<path fill-rule="evenodd" clip-rule="evenodd" d="M5 5.5C6.10457 5.5 7 4.60457 7 3.5C7 2.39543 6.10457 1.5 5 1.5C3.89543 1.5 3 2.39543 3 3.5C3 4.60457 3.89543 5.5 5 5.5ZM5 10.5C6.933 10.5 8.5 9.60457 8.5 8.5C8.5 7.39543 6.933 6.5 5 6.5C3.067 6.5 1.5 7.39543 1.5 8.5C1.5 9.60457 3.067 10.5 5 10.5ZM6.98071 5.40773C7.45707 4.91326 7.75 4.24086 7.75 3.50004C7.75 3.14774 7.68375 2.81092 7.56304 2.50134C8.36221 2.5344 8.99997 3.19274 8.99997 4.00004C8.99997 4.82847 8.32839 5.50004 7.49997 5.50004C7.31743 5.50004 7.14251 5.46744 6.98071 5.40773ZM9.24995 8.49996C9.24995 8.76937 9.19008 9.02973 9.07848 9.27577C9.9317 9.01129 10.5 8.53881 10.5 7.99996C10.5 7.24686 9.38996 6.62339 7.94336 6.51624C8.74869 7.01666 9.24995 7.72044 9.24995 8.49996Z" fill="white"/>
</svg>
