<svg width="24" height="24" viewBox="0 0 24 24" fill="none" xmlns="http://www.w3.org/2000/svg">
<path d="M11.9999 2C9.24741 2 6.99995 4.24746 6.99995 7C6.99995 9.75254 9.24741 12 11.9999 12C14.7525 12 16.9999 9.75254 16.9999 7C16.9999 4.24746 14.7525 2 11.9999 2ZM11.9999 3.5C13.9418 3.5 15.4999 5.05812 15.4999 7C15.4999 8.94188 13.9418 10.5 11.9999 10.5C10.0581 10.5 8.49995 8.94188 8.49995 7C8.49995 5.05812 10.0581 3.5 11.9999 3.5ZM5.9892 14C4.8993 14 3.99995 14.8994 3.99995 15.9893V16.75C3.99995 18.5521 5.13958 19.9461 6.65327 20.7812C8.16695 21.6164 10.084 22 11.9999 22C13.9159 22 15.8329 21.6164 17.3466 20.7812C18.6373 20.0692 19.6086 18.9313 19.8808 17.5H20.0009V15.9893C20.0009 14.8994 19.1006 14 18.0107 14H5.9892ZM5.9892 15.5H18.0107C18.2898 15.5 18.5009 15.7102 18.5009 15.9893V16H18.4999V16.75C18.4999 17.9479 17.8271 18.8039 16.622 19.4688C15.417 20.1336 13.709 20.5 11.9999 20.5C10.2909 20.5 8.58294 20.1336 7.37788 19.4688C6.17281 18.8039 5.49995 17.9479 5.49995 16.75V15.9893C5.49995 15.7102 5.71011 15.5 5.9892 15.5Z" fill="#7A7A7A"/>
</svg>
