<svg width="20" height="20" viewBox="0 0 20 20" fill="none" xmlns="http://www.w3.org/2000/svg">
<path opacity="0.5" d="M10.8334 1.66675H9.16671C7.59536 1.66675 6.80968 1.66675 6.32153 2.1549C5.83337 2.64306 5.83337 3.42873 5.83337 5.00008V6.66675H14.1667V5.00008C14.1667 3.42873 14.1667 2.64306 13.6786 2.1549C13.1904 1.66675 12.4047 1.66675 10.8334 1.66675Z" fill="#CAFF00"/>
<path fill-rule="evenodd" clip-rule="evenodd" d="M8.33337 5H11.6667C14.0237 5 15.2022 5 15.9345 5.73223C16.6667 6.46447 16.6667 7.64298 16.6667 10V10.8798C16.6667 12.8845 16.6667 13.8868 16.1689 14.6923C15.671 15.4978 14.7745 15.9461 12.9815 16.8426C11.5184 17.5741 10.7869 17.9399 10 17.9399C9.21315 17.9399 8.48163 17.5741 7.01862 16.8426C5.22556 15.9461 4.32904 15.4978 3.8312 14.6923C3.33337 13.8868 3.33337 12.8845 3.33337 10.8798V10C3.33337 7.64298 3.33337 6.46447 4.06561 5.73223C4.79784 5 5.97635 5 8.33337 5ZM10 8.33333C9.76333 8.33333 9.60499 8.61736 9.28833 9.18543L9.20641 9.33239C9.11642 9.49382 9.07143 9.57453 9.00128 9.62779C8.93112 9.68104 8.84375 9.70081 8.66901 9.74035L8.50992 9.77634C7.895 9.91547 7.58754 9.98504 7.5144 10.2203C7.44125 10.4555 7.65085 10.7006 8.07007 11.1908L8.17852 11.3176C8.29765 11.4569 8.35721 11.5266 8.38401 11.6128C8.4108 11.6989 8.4018 11.7919 8.38379 11.9777L8.36739 12.1469C8.30401 12.801 8.27232 13.128 8.46383 13.2734C8.65533 13.4188 8.94321 13.2862 9.51896 13.0211L9.66791 12.9525C9.83152 12.8772 9.91333 12.8395 10 12.8395C10.0868 12.8395 10.1686 12.8772 10.3322 12.9525L10.4811 13.0211C11.0569 13.2862 11.3447 13.4188 11.5363 13.2734C11.7278 13.128 11.6961 12.801 11.6327 12.1469L11.6163 11.9777C11.5983 11.7919 11.5893 11.6989 11.6161 11.6128C11.6429 11.5266 11.7024 11.4569 11.8216 11.3176L11.93 11.1908C12.3492 10.7006 12.5588 10.4555 12.4857 10.2203C12.4125 9.98504 12.1051 9.91547 11.4902 9.77634L11.3311 9.74035C11.1563 9.70081 11.069 9.68104 10.9988 9.62779C10.9287 9.57453 10.8837 9.49382 10.7937 9.33239L10.7117 9.18543C10.3951 8.61736 10.2368 8.33333 10 8.33333Z" fill="#CAFF00"/>
</svg>
