<svg width="20" height="20" viewBox="0 0 20 20" fill="none" xmlns="http://www.w3.org/2000/svg">
<path fill-rule="evenodd" clip-rule="evenodd" d="M9.58329 2.29169C5.55622 2.29169 2.29163 5.55628 2.29163 9.58335C2.29163 13.6104 5.55622 16.875 9.58329 16.875C13.6104 16.875 16.875 13.6104 16.875 9.58335C16.875 5.55628 13.6104 2.29169 9.58329 2.29169ZM1.04163 9.58335C1.04163 4.86592 4.86586 1.04169 9.58329 1.04169C14.3007 1.04169 18.125 4.86592 18.125 9.58335C18.125 14.3008 14.3007 18.125 9.58329 18.125C4.86586 18.125 1.04163 14.3008 1.04163 9.58335ZM16.2247 16.2247C16.4688 15.9807 16.8645 15.9807 17.1086 16.2247L18.7752 17.8914C19.0193 18.1355 19.0193 18.5312 18.7752 18.7753C18.5312 19.0194 18.1354 19.0194 17.8914 18.7753L16.2247 17.1086C15.9806 16.8646 15.9806 16.4688 16.2247 16.2247Z" fill="white"/>
</svg>
