<svg width="40" height="40" viewBox="0 0 40 40" fill="none" xmlns="http://www.w3.org/2000/svg">
<rect width="40" height="40" rx="20" fill="#CAFF00"/>
<path fill-rule="evenodd" clip-rule="evenodd" d="M26.9602 18.7673L25.5298 23.0584C24.5213 26.0839 24.017 27.5967 23.2776 28.0266C22.5741 28.4355 21.7053 28.4355 21.0019 28.0266C20.2624 27.5967 19.7582 26.0839 18.7497 23.0584C18.5877 22.5726 18.5068 22.3297 18.3709 22.1267C18.2391 21.9299 18.0701 21.7609 17.8734 21.6292C17.6703 21.4933 17.4274 21.4123 16.9416 21.2504C13.9161 20.2419 12.4033 19.7376 11.9735 18.9982C11.5645 18.2947 11.5645 17.4259 11.9735 16.7224C12.4033 15.983 13.9161 15.4787 16.9416 14.4702L21.2328 13.0399C24.9814 11.7903 26.8557 11.1655 27.8451 12.1549C28.8345 13.1443 28.2097 15.0186 26.9602 18.7673ZM20.8715 19.0851C20.6288 18.8397 20.631 18.444 20.8764 18.2012L24.3852 14.7311C24.6306 14.4884 25.0263 14.4906 25.269 14.736C25.5117 14.9815 25.5096 15.3772 25.2641 15.6199L21.7554 19.09C21.5099 19.3327 21.1142 19.3305 20.8715 19.0851Z" fill="black"/>
</svg>
