<svg width="16" height="16" viewBox="0 0 16 16" fill="none" xmlns="http://www.w3.org/2000/svg">
<path d="M8.03858 1.6667C7.94904 1.66611 7.86113 1.69173 7.78483 1.74063C7.70853 1.78954 7.64689 1.85978 7.6069 1.94339L5.96127 5.3783L2.05368 6.00591C1.96621 6.02002 1.8842 6.05913 1.81673 6.11891C1.74926 6.17869 1.69898 6.25681 1.67146 6.3446C1.64394 6.43239 1.64025 6.52641 1.66081 6.61625C1.68137 6.70609 1.72537 6.78824 1.78793 6.85357L4.49093 9.67455L3.88895 13.7573C3.87548 13.8486 3.88653 13.942 3.92087 14.0272C3.95521 14.1124 4.0115 14.186 4.08349 14.2398C4.15548 14.2936 4.24035 14.3256 4.32868 14.3321C4.41701 14.3386 4.50534 14.3195 4.58388 14.2768L8.03546 12.3972L11.487 14.2768C11.5656 14.3195 11.6539 14.3386 11.7422 14.3321C11.8306 14.3256 11.9154 14.2936 11.9874 14.2398C12.0594 14.186 12.1157 14.1124 12.1501 14.0272C12.1844 13.942 12.1954 13.8486 12.182 13.7573L11.58 9.67455L14.283 6.85357C14.3456 6.78824 14.3896 6.70609 14.4101 6.61625C14.4307 6.52641 14.427 6.43239 14.3995 6.3446C14.3719 6.25681 14.3217 6.17869 14.2542 6.11891C14.1867 6.05913 14.1047 6.02002 14.0172 6.00591L10.1097 5.3783L8.46402 1.94339C8.4245 1.86077 8.36383 1.79118 8.28874 1.74234C8.21364 1.69351 8.12706 1.66732 8.03858 1.6667Z" fill="#E9E9E9"/>
</svg>
