<svg width="20" height="20" viewBox="0 0 20 20" fill="none" xmlns="http://www.w3.org/2000/svg">
<path d="M10.0042 2.08343C9.88741 2.0827 9.77273 2.11472 9.67319 2.17585C9.57366 2.23698 9.49324 2.32479 9.44107 2.4293L7.29426 6.72292L2.1966 7.50742C2.0825 7.52505 1.97551 7.57395 1.88749 7.64867C1.79948 7.7234 1.73389 7.82105 1.69798 7.93078C1.66208 8.04051 1.65727 8.15805 1.68409 8.27035C1.71091 8.38265 1.76831 8.48533 1.84992 8.56699L5.37613 12.0932L4.59081 17.1966C4.57324 17.3107 4.58765 17.4275 4.63245 17.534C4.67726 17.6405 4.75069 17.7325 4.8446 17.7998C4.93851 17.867 5.04923 17.907 5.16446 17.9151C5.27969 17.9233 5.39493 17.8993 5.49738 17.846L10.0001 15.4965L14.5029 17.846C14.6054 17.8993 14.7206 17.9233 14.8358 17.9151C14.9511 17.907 15.0618 17.867 15.1557 17.7998C15.2496 17.7325 15.323 17.6405 15.3678 17.534C15.4126 17.4275 15.4271 17.3107 15.4095 17.1966L14.6242 12.0932L18.1504 8.56699C18.232 8.48533 18.2894 8.38265 18.3162 8.27035C18.343 8.15805 18.3382 8.04051 18.3023 7.93078C18.2664 7.82105 18.2008 7.7234 18.1128 7.64867C18.0248 7.57395 17.9178 7.52505 17.8037 7.50742L12.706 6.72292L10.5592 2.4293C10.5077 2.32602 10.4285 2.23904 10.3306 2.17799C10.2326 2.11694 10.1196 2.08421 10.0042 2.08343Z" fill="#FFC20E"/>
</svg>
