<svg width="24" height="24" viewBox="0 0 24 24" fill="none" xmlns="http://www.w3.org/2000/svg">
<path d="M10.869 7.36922C10.811 7.42572 10.563 7.63906 10.359 7.8378C9.076 9.00292 6.976 12.0424 6.335 13.6332C6.232 13.8748 6.014 14.4856 6 14.812C6 15.1247 6.072 15.4228 6.218 15.7073C6.422 16.0619 6.743 16.3463 7.122 16.5022C7.385 16.6025 8.172 16.7584 8.186 16.7584C9.047 16.9143 10.446 17 11.992 17C13.465 17 14.807 16.9143 15.681 16.7867C15.695 16.772 16.673 16.6162 17.008 16.4457C17.62 16.133 18 15.5222 18 14.8685V14.812C17.985 14.3863 17.605 13.491 17.591 13.491C16.949 11.9859 14.952 9.01656 13.625 7.82319C13.625 7.82319 13.284 7.48709 13.071 7.34096C12.765 7.11301 12.386 7 12.007 7C11.584 7 11.19 7.12762 10.869 7.36922Z" fill="black"/>
</svg>
